<mxfile host="app.diagrams.net" modified="2024-02-16T16:19:50.317Z" agent="Mozilla/5.0 (Windows NT 10.0; Win64; x64) AppleWebKit/537.36 (KHTML, like Gecko) Chrome/121.0.0.0 Safari/537.36" etag="2GB6VaN9fgnHjW6rBZKL" version="23.1.4" type="google">
  <diagram id="R2lEEEUBdFMjLlhIrx00" name="Page-1">
    <mxGraphModel grid="1" page="1" gridSize="10" guides="1" tooltips="1" connect="1" arrows="1" fold="1" pageScale="1" pageWidth="850" pageHeight="1100" math="0" shadow="0" extFonts="Permanent Marker^https://fonts.googleapis.com/css?family=Permanent+Marker">
      <root>
        <mxCell id="0" />
        <mxCell id="1" parent="0" />
        <mxCell id="Lrfri0rjpBoafnMVy41J-11" style="rounded=0;orthogonalLoop=1;jettySize=auto;html=1;entryX=1;entryY=0.5;entryDx=0;entryDy=0;endArrow=none;endFill=0;startArrow=none;startFill=0;fillColor=#dae8fc;strokeColor=#6c8ebf;edgeStyle=orthogonalEdgeStyle;exitX=0.959;exitY=0.992;exitDx=0;exitDy=0;exitPerimeter=0;" edge="1" parent="1" source="DJmNyeJXOnHaQmtomHHY-2" target="Lrfri0rjpBoafnMVy41J-9">
          <mxGeometry relative="1" as="geometry">
            <mxPoint x="980" y="1116" as="sourcePoint" />
            <Array as="points">
              <mxPoint x="980" y="1116" />
              <mxPoint x="980" y="1286" />
            </Array>
          </mxGeometry>
        </mxCell>
        <mxCell id="lZeAHrLUnZliuIAY2SoR-14" style="rounded=0;orthogonalLoop=1;jettySize=auto;html=1;entryX=1;entryY=0.5;entryDx=0;entryDy=0;endArrow=none;endFill=0;fillColor=#dae8fc;strokeColor=#6c8ebf;exitX=0;exitY=0.25;exitDx=0;exitDy=0;" edge="1" parent="1" source="DJmNyeJXOnHaQmtomHHY-2" target="lZeAHrLUnZliuIAY2SoR-13">
          <mxGeometry relative="1" as="geometry">
            <Array as="points" />
          </mxGeometry>
        </mxCell>
        <mxCell id="DJmNyeJXOnHaQmtomHHY-2" value="User" style="rounded=0;whiteSpace=wrap;html=1;fillColor=#dae8fc;strokeColor=#6c8ebf;" vertex="1" parent="1">
          <mxGeometry x="865" y="1055" width="120" height="60" as="geometry" />
        </mxCell>
        <mxCell id="OXqYIGwQ-AyHsIIW2JmJ-2" value="phone number" style="ellipse;whiteSpace=wrap;html=1;align=center;fontStyle=4;fillColor=#dae8fc;strokeColor=#6c8ebf;" vertex="1" parent="1">
          <mxGeometry x="1255" y="1493" width="100" height="40" as="geometry" />
        </mxCell>
        <mxCell id="slolwJeSWKeAAmXaZOgp-3" value="date of birth" style="ellipse;whiteSpace=wrap;html=1;align=center;fillColor=#dae8fc;strokeColor=#6c8ebf;" vertex="1" parent="1">
          <mxGeometry x="1255" y="1343" width="100" height="40" as="geometry" />
        </mxCell>
        <mxCell id="DJmNyeJXOnHaQmtomHHY-6" value="home address" style="ellipse;whiteSpace=wrap;html=1;align=center;fillColor=#dae8fc;strokeColor=#6c8ebf;" vertex="1" parent="1">
          <mxGeometry x="1255" y="1416" width="100" height="40" as="geometry" />
        </mxCell>
        <mxCell id="bwthoGPY4zgi1K1K-MdN-1" value="Mall" style="whiteSpace=wrap;html=1;fillColor=#dae8fc;strokeColor=#6c8ebf;" vertex="1" parent="1">
          <mxGeometry x="667" y="-7" width="120" height="60" as="geometry" />
        </mxCell>
        <mxCell id="slolwJeSWKeAAmXaZOgp-4" value="email address" style="ellipse;whiteSpace=wrap;html=1;align=center;fillColor=#dae8fc;strokeColor=#6c8ebf;" vertex="1" parent="1">
          <mxGeometry x="1255" y="1053" width="100" height="40" as="geometry" />
        </mxCell>
        <mxCell id="OXqYIGwQ-AyHsIIW2JmJ-5" style="rounded=0;orthogonalLoop=1;jettySize=auto;html=1;entryX=1.002;entryY=0.568;entryDx=0;entryDy=0;entryPerimeter=0;endArrow=none;endFill=0;exitX=0;exitY=0.5;exitDx=0;exitDy=0;fillColor=#dae8fc;strokeColor=#6c8ebf;" edge="1" parent="1" source="slolwJeSWKeAAmXaZOgp-3" target="DJmNyeJXOnHaQmtomHHY-2">
          <mxGeometry relative="1" as="geometry" />
        </mxCell>
        <mxCell id="bwthoGPY4zgi1K1K-MdN-2" value="monthly income" style="ellipse;whiteSpace=wrap;html=1;fillColor=#dae8fc;strokeColor=#6c8ebf;" vertex="1" parent="1">
          <mxGeometry x="1255" y="1266" width="100" height="50" as="geometry" />
        </mxCell>
        <mxCell id="OXqYIGwQ-AyHsIIW2JmJ-7" value="" style="rounded=0;orthogonalLoop=1;jettySize=auto;html=1;endArrow=none;endFill=0;entryX=1.002;entryY=0.637;entryDx=0;entryDy=0;entryPerimeter=0;exitX=0;exitY=0.5;exitDx=0;exitDy=0;fillColor=#dae8fc;strokeColor=#6c8ebf;" edge="1" parent="1" source="DJmNyeJXOnHaQmtomHHY-6" target="DJmNyeJXOnHaQmtomHHY-2">
          <mxGeometry relative="1" as="geometry" />
        </mxCell>
        <mxCell id="OXqYIGwQ-AyHsIIW2JmJ-9" value="" style="rounded=0;orthogonalLoop=1;jettySize=auto;html=1;endArrow=none;endFill=0;entryX=1.002;entryY=0.355;entryDx=0;entryDy=0;entryPerimeter=0;fillColor=#dae8fc;strokeColor=#6c8ebf;" edge="1" parent="1" source="DJmNyeJXOnHaQmtomHHY-3" target="DJmNyeJXOnHaQmtomHHY-2">
          <mxGeometry relative="1" as="geometry" />
        </mxCell>
        <mxCell id="OXqYIGwQ-AyHsIIW2JmJ-3" style="rounded=0;orthogonalLoop=1;jettySize=auto;html=1;endArrow=none;endFill=0;entryX=1;entryY=0.75;entryDx=0;entryDy=0;fillColor=#dae8fc;strokeColor=#6c8ebf;exitX=0;exitY=0.5;exitDx=0;exitDy=0;" edge="1" parent="1" source="OXqYIGwQ-AyHsIIW2JmJ-2" target="DJmNyeJXOnHaQmtomHHY-2">
          <mxGeometry relative="1" as="geometry">
            <mxPoint x="985" y="1125" as="targetPoint" />
          </mxGeometry>
        </mxCell>
        <mxCell id="slolwJeSWKeAAmXaZOgp-14" style="edgeStyle=orthogonalEdgeStyle;rounded=0;orthogonalLoop=1;jettySize=auto;html=1;endArrow=none;endFill=0;fillColor=#dae8fc;strokeColor=#6c8ebf;" edge="1" parent="1" source="OXqYIGwQ-AyHsIIW2JmJ-13" target="bwthoGPY4zgi1K1K-MdN-1">
          <mxGeometry relative="1" as="geometry" />
        </mxCell>
        <mxCell id="OXqYIGwQ-AyHsIIW2JmJ-13" value="Belong to" style="shape=rhombus;perimeter=rhombusPerimeter;whiteSpace=wrap;html=1;align=center;fillColor=#dae8fc;strokeColor=#6c8ebf;" vertex="1" parent="1">
          <mxGeometry x="897" y="-7" width="120" height="60" as="geometry" />
        </mxCell>
        <mxCell id="slolwJeSWKeAAmXaZOgp-6" value="Mall Chain" style="whiteSpace=wrap;html=1;fillColor=#dae8fc;strokeColor=#6c8ebf;" vertex="1" parent="1">
          <mxGeometry x="1157" y="-7" width="120" height="60" as="geometry" />
        </mxCell>
        <mxCell id="slolwJeSWKeAAmXaZOgp-5" style="rounded=0;orthogonalLoop=1;jettySize=auto;html=1;entryX=0.995;entryY=0.29;entryDx=0;entryDy=0;endArrow=none;endFill=0;exitX=0;exitY=0.5;exitDx=0;exitDy=0;entryPerimeter=0;fillColor=#dae8fc;strokeColor=#6c8ebf;" edge="1" parent="1" source="slolwJeSWKeAAmXaZOgp-4" target="DJmNyeJXOnHaQmtomHHY-2">
          <mxGeometry relative="1" as="geometry" />
        </mxCell>
        <mxCell id="slolwJeSWKeAAmXaZOgp-15" style="edgeStyle=orthogonalEdgeStyle;rounded=0;orthogonalLoop=1;jettySize=auto;html=1;entryX=0.5;entryY=0;entryDx=0;entryDy=0;endArrow=none;endFill=0;fillColor=#dae8fc;strokeColor=#6c8ebf;" edge="1" parent="1" source="slolwJeSWKeAAmXaZOgp-7" target="slolwJeSWKeAAmXaZOgp-6">
          <mxGeometry relative="1" as="geometry">
            <mxPoint x="1217" y="102" as="targetPoint" />
          </mxGeometry>
        </mxCell>
        <mxCell id="slolwJeSWKeAAmXaZOgp-7" value="&lt;u&gt;name&lt;/u&gt;" style="ellipse;whiteSpace=wrap;html=1;align=center;fillColor=#dae8fc;strokeColor=#6c8ebf;" vertex="1" parent="1">
          <mxGeometry x="1167" y="-77" width="100" height="40" as="geometry" />
        </mxCell>
        <mxCell id="slolwJeSWKeAAmXaZOgp-8" value="&lt;u&gt;name&lt;/u&gt;" style="ellipse;whiteSpace=wrap;html=1;align=center;fillColor=#dae8fc;strokeColor=#6c8ebf;" vertex="1" parent="1">
          <mxGeometry x="632" y="-117" width="80" height="40" as="geometry" />
        </mxCell>
        <mxCell id="73Jbww3QsZ7wR817YWZ4-9" style="rounded=0;orthogonalLoop=1;jettySize=auto;html=1;entryX=1;entryY=0.5;entryDx=0;entryDy=0;endArrow=none;endFill=0;fillColor=#dae8fc;strokeColor=#6c8ebf;exitX=0;exitY=0.5;exitDx=0;exitDy=0;" edge="1" parent="1" source="DJmNyeJXOnHaQmtomHHY-10" target="MgpVTpHmpH2QPh2ng6by-5">
          <mxGeometry relative="1" as="geometry">
            <mxPoint x="247" y="50" as="targetPoint" />
          </mxGeometry>
        </mxCell>
        <mxCell id="DJmNyeJXOnHaQmtomHHY-10" value="Restaurant &amp;amp; Cafeterias" style="shape=ext;margin=3;double=1;whiteSpace=wrap;html=1;align=center;fillColor=#dae8fc;strokeColor=#6c8ebf;" vertex="1" parent="1">
          <mxGeometry y="-6" width="158" height="57" as="geometry" />
        </mxCell>
        <mxCell id="slolwJeSWKeAAmXaZOgp-9" value="Retail Shops" style="shape=ext;margin=3;double=1;whiteSpace=wrap;html=1;align=center;fillColor=#dae8fc;strokeColor=#6c8ebf;" vertex="1" parent="1">
          <mxGeometry x="736" y="322" width="100" height="40" as="geometry" />
        </mxCell>
        <mxCell id="DJmNyeJXOnHaQmtomHHY-5" value="gender" style="ellipse;whiteSpace=wrap;html=1;align=center;fillColor=#dae8fc;strokeColor=#6c8ebf;" vertex="1" parent="1">
          <mxGeometry x="1255" y="1198" width="100" height="40" as="geometry" />
        </mxCell>
        <mxCell id="bwthoGPY4zgi1K1K-MdN-3" value="" style="endArrow=none;html=1;rounded=0;exitX=1;exitY=0.5;exitDx=0;exitDy=0;entryX=0;entryY=0.5;entryDx=0;entryDy=0;fillColor=#dae8fc;strokeColor=#6c8ebf;" edge="1" parent="1" source="DJmNyeJXOnHaQmtomHHY-2" target="bwthoGPY4zgi1K1K-MdN-2">
          <mxGeometry width="50" height="50" relative="1" as="geometry">
            <mxPoint x="1025" y="795" as="sourcePoint" />
            <mxPoint x="1145" y="1155" as="targetPoint" />
          </mxGeometry>
        </mxCell>
        <mxCell id="ysqHiJpSfT0GFniZglLz-1" value="" style="endArrow=open;html=1;rounded=0;entryX=0;entryY=0.5;entryDx=0;entryDy=0;exitX=1;exitY=0.5;exitDx=0;exitDy=0;endFill=0;fillColor=#dae8fc;strokeColor=#6c8ebf;" edge="1" parent="1" source="OXqYIGwQ-AyHsIIW2JmJ-13" target="slolwJeSWKeAAmXaZOgp-6">
          <mxGeometry width="50" height="50" relative="1" as="geometry">
            <mxPoint x="777" y="252" as="sourcePoint" />
            <mxPoint x="1157" y="132" as="targetPoint" />
          </mxGeometry>
        </mxCell>
        <mxCell id="OXqYIGwQ-AyHsIIW2JmJ-10" value="" style="rounded=0;orthogonalLoop=1;jettySize=auto;html=1;endArrow=none;endFill=0;entryX=1.002;entryY=0.421;entryDx=0;entryDy=0;entryPerimeter=0;exitX=0;exitY=0.5;exitDx=0;exitDy=0;fillColor=#dae8fc;strokeColor=#6c8ebf;" edge="1" parent="1" source="DJmNyeJXOnHaQmtomHHY-5" target="DJmNyeJXOnHaQmtomHHY-2">
          <mxGeometry relative="1" as="geometry" />
        </mxCell>
        <mxCell id="DJmNyeJXOnHaQmtomHHY-3" value="name" style="ellipse;whiteSpace=wrap;html=1;align=center;fillColor=#dae8fc;strokeColor=#6c8ebf;" vertex="1" parent="1">
          <mxGeometry x="1255" y="1126" width="100" height="40" as="geometry" />
        </mxCell>
        <mxCell id="DJmNyeJXOnHaQmtomHHY-16" value="" style="endArrow=none;html=1;rounded=0;exitX=1;exitY=0.5;exitDx=0;exitDy=0;entryX=0;entryY=0.5;entryDx=0;entryDy=0;fillColor=#dae8fc;strokeColor=#6c8ebf;" edge="1" parent="1" source="DJmNyeJXOnHaQmtomHHY-10" target="DJmNyeJXOnHaQmtomHHY-15">
          <mxGeometry width="50" height="50" relative="1" as="geometry">
            <mxPoint x="457" y="112" as="sourcePoint" />
            <mxPoint x="667" y="132" as="targetPoint" />
          </mxGeometry>
        </mxCell>
        <mxCell id="DJmNyeJXOnHaQmtomHHY-15" value="In" style="shape=rhombus;double=1;perimeter=rhombusPerimeter;whiteSpace=wrap;html=1;align=center;fillColor=#dae8fc;strokeColor=#6c8ebf;" vertex="1" parent="1">
          <mxGeometry x="347" y="-7" width="120" height="60" as="geometry" />
        </mxCell>
        <mxCell id="ysqHiJpSfT0GFniZglLz-4" style="edgeStyle=orthogonalEdgeStyle;rounded=0;orthogonalLoop=1;jettySize=auto;html=1;exitX=0.5;exitY=1;exitDx=0;exitDy=0;fillColor=#dae8fc;strokeColor=#6c8ebf;" edge="1" parent="1" source="slolwJeSWKeAAmXaZOgp-8" target="slolwJeSWKeAAmXaZOgp-8">
          <mxGeometry relative="1" as="geometry" />
        </mxCell>
        <mxCell id="DJmNyeJXOnHaQmtomHHY-17" value="" style="endArrow=none;html=1;rounded=0;exitX=0.5;exitY=1;exitDx=0;exitDy=0;entryX=0.25;entryY=0;entryDx=0;entryDy=0;fillColor=#dae8fc;strokeColor=#6c8ebf;" edge="1" parent="1" source="slolwJeSWKeAAmXaZOgp-8" target="bwthoGPY4zgi1K1K-MdN-1">
          <mxGeometry relative="1" as="geometry">
            <mxPoint x="697" y="202" as="sourcePoint" />
            <mxPoint x="857" y="202" as="targetPoint" />
          </mxGeometry>
        </mxCell>
        <mxCell id="DJmNyeJXOnHaQmtomHHY-19" value="Restaurant Chain" style="whiteSpace=wrap;html=1;fillColor=#dae8fc;strokeColor=#6c8ebf;" vertex="1" parent="1">
          <mxGeometry x="-120" y="270" width="120" height="60" as="geometry" />
        </mxCell>
        <mxCell id="DJmNyeJXOnHaQmtomHHY-21" value="Belong to" style="shape=rhombus;perimeter=rhombusPerimeter;whiteSpace=wrap;html=1;align=center;fillColor=#dae8fc;strokeColor=#6c8ebf;" vertex="1" parent="1">
          <mxGeometry x="-120" y="147.5" width="120" height="60" as="geometry" />
        </mxCell>
        <mxCell id="DJmNyeJXOnHaQmtomHHY-22" value="" style="endArrow=none;html=1;rounded=0;exitX=0.5;exitY=0;exitDx=0;exitDy=0;entryX=0.25;entryY=1;entryDx=0;entryDy=0;fillColor=#dae8fc;strokeColor=#6c8ebf;" edge="1" parent="1" source="DJmNyeJXOnHaQmtomHHY-21" target="DJmNyeJXOnHaQmtomHHY-10">
          <mxGeometry relative="1" as="geometry">
            <mxPoint x="140" y="370" as="sourcePoint" />
            <mxPoint x="300" y="370" as="targetPoint" />
          </mxGeometry>
        </mxCell>
        <mxCell id="DJmNyeJXOnHaQmtomHHY-23" value="" style="endArrow=none;html=1;rounded=0;exitX=0.5;exitY=0;exitDx=0;exitDy=0;entryX=0.5;entryY=1;entryDx=0;entryDy=0;startArrow=open;startFill=0;fillColor=#dae8fc;strokeColor=#6c8ebf;" edge="1" parent="1" source="DJmNyeJXOnHaQmtomHHY-19" target="DJmNyeJXOnHaQmtomHHY-21">
          <mxGeometry relative="1" as="geometry">
            <mxPoint x="320" y="50" as="sourcePoint" />
            <mxPoint x="390" y="60" as="targetPoint" />
          </mxGeometry>
        </mxCell>
        <mxCell id="lZeAHrLUnZliuIAY2SoR-8" style="rounded=0;orthogonalLoop=1;jettySize=auto;html=1;entryX=0;entryY=0.5;entryDx=0;entryDy=0;fillColor=#dae8fc;strokeColor=#6c8ebf;endArrow=none;endFill=0;exitX=1;exitY=1;exitDx=0;exitDy=0;" edge="1" parent="1" source="OXqYIGwQ-AyHsIIW2JmJ-16" target="lZeAHrLUnZliuIAY2SoR-7">
          <mxGeometry relative="1" as="geometry" />
        </mxCell>
        <mxCell id="OXqYIGwQ-AyHsIIW2JmJ-16" value="Voucher" style="whiteSpace=wrap;html=1;align=center;fillColor=#dae8fc;strokeColor=#6c8ebf;" vertex="1" parent="1">
          <mxGeometry x="427" y="502.5" width="100" height="40" as="geometry" />
        </mxCell>
        <mxCell id="73Jbww3QsZ7wR817YWZ4-11" style="rounded=0;orthogonalLoop=1;jettySize=auto;html=1;endArrow=none;endFill=0;fillColor=#dae8fc;strokeColor=#6c8ebf;exitX=1;exitY=0.5;exitDx=0;exitDy=0;entryX=0;entryY=0.5;entryDx=0;entryDy=0;" edge="1" parent="1" source="73Jbww3QsZ7wR817YWZ4-10" target="OXqYIGwQ-AyHsIIW2JmJ-16">
          <mxGeometry relative="1" as="geometry">
            <mxPoint x="398" y="398" as="targetPoint" />
          </mxGeometry>
        </mxCell>
        <mxCell id="73Jbww3QsZ7wR817YWZ4-10" value="status" style="ellipse;whiteSpace=wrap;html=1;align=center;fillColor=#dae8fc;strokeColor=#6c8ebf;" vertex="1" parent="1">
          <mxGeometry x="270" y="510.5" width="100" height="38" as="geometry" />
        </mxCell>
        <mxCell id="jHbDXK00eHfmieeJK_Rx-3" value="" style="endArrow=none;html=1;rounded=0;exitX=0.5;exitY=0;exitDx=0;exitDy=0;fillColor=#dae8fc;strokeColor=#6c8ebf;entryX=0.5;entryY=1;entryDx=0;entryDy=0;" edge="1" parent="1" source="slolwJeSWKeAAmXaZOgp-9" target="jHbDXK00eHfmieeJK_Rx-5">
          <mxGeometry width="50" height="50" relative="1" as="geometry">
            <mxPoint x="454" y="237.5" as="sourcePoint" />
            <mxPoint x="544" y="327.5" as="targetPoint" />
          </mxGeometry>
        </mxCell>
        <mxCell id="jHbDXK00eHfmieeJK_Rx-5" value="In" style="shape=rhombus;double=1;perimeter=rhombusPerimeter;whiteSpace=wrap;html=1;align=center;fillColor=#dae8fc;strokeColor=#6c8ebf;" vertex="1" parent="1">
          <mxGeometry x="729" y="190" width="120" height="60" as="geometry" />
        </mxCell>
        <mxCell id="slolwJeSWKeAAmXaZOgp-23" value="" style="shape=requiredInterface;html=1;verticalLabelPosition=bottom;sketch=0;fillColor=#dae8fc;strokeColor=#6c8ebf;whiteSpace=wrap;" vertex="1" parent="1">
          <mxGeometry x="657" y="17" width="10" height="12" as="geometry" />
        </mxCell>
        <mxCell id="slolwJeSWKeAAmXaZOgp-19" style="rounded=0;orthogonalLoop=1;jettySize=auto;html=1;exitX=1;exitY=0.5;exitDx=0;exitDy=0;entryX=0;entryY=0.5;entryDx=0;entryDy=0;endArrow=none;endFill=0;fillColor=#dae8fc;strokeColor=#6c8ebf;" edge="1" parent="1" source="DJmNyeJXOnHaQmtomHHY-15" target="bwthoGPY4zgi1K1K-MdN-1">
          <mxGeometry relative="1" as="geometry" />
        </mxCell>
        <mxCell id="slolwJeSWKeAAmXaZOgp-22" value="" style="shape=requiredInterface;html=1;verticalLabelPosition=bottom;sketch=0;rotation=-115;fillColor=#dae8fc;strokeColor=#6c8ebf;whiteSpace=wrap;" vertex="1" parent="1">
          <mxGeometry x="724" y="51" width="10" height="12" as="geometry" />
        </mxCell>
        <mxCell id="slolwJeSWKeAAmXaZOgp-25" style="rounded=0;orthogonalLoop=1;jettySize=auto;html=1;exitX=0.5;exitY=0;exitDx=0;exitDy=0;entryX=0.5;entryY=1;entryDx=0;entryDy=0;endArrow=none;endFill=0;fillColor=#dae8fc;strokeColor=#6c8ebf;" edge="1" parent="1" source="jHbDXK00eHfmieeJK_Rx-5" target="bwthoGPY4zgi1K1K-MdN-1">
          <mxGeometry relative="1" as="geometry">
            <mxPoint x="650" y="280" as="targetPoint" />
          </mxGeometry>
        </mxCell>
        <mxCell id="OXqYIGwQ-AyHsIIW2JmJ-26" value="" style="rounded=0;orthogonalLoop=1;jettySize=auto;html=1;endArrow=none;endFill=0;fillColor=#dae8fc;strokeColor=#6c8ebf;entryX=1;entryY=0.5;entryDx=0;entryDy=0;exitX=0;exitY=0.5;exitDx=0;exitDy=0;" edge="1" parent="1" source="OXqYIGwQ-AyHsIIW2JmJ-25" target="w4JCF7AyKfzk5Y68rzHO-1">
          <mxGeometry relative="1" as="geometry">
            <mxPoint x="360.5" y="1141.5" as="targetPoint" />
          </mxGeometry>
        </mxCell>
        <mxCell id="OXqYIGwQ-AyHsIIW2JmJ-25" value="Status" style="ellipse;whiteSpace=wrap;html=1;align=center;fillColor=#dae8fc;strokeColor=#6c8ebf;" vertex="1" parent="1">
          <mxGeometry x="897" y="603" width="100" height="40" as="geometry" />
        </mxCell>
        <mxCell id="jHbDXK00eHfmieeJK_Rx-9" style="rounded=0;orthogonalLoop=1;jettySize=auto;html=1;endArrow=none;endFill=0;entryX=0;entryY=0;entryDx=0;entryDy=0;exitX=1;exitY=0.5;exitDx=0;exitDy=0;fillColor=#dae8fc;strokeColor=#6c8ebf;" edge="1" parent="1" source="jHbDXK00eHfmieeJK_Rx-10" target="OXqYIGwQ-AyHsIIW2JmJ-16">
          <mxGeometry relative="1" as="geometry">
            <mxPoint x="558" y="938" as="sourcePoint" />
            <mxPoint x="458" y="868" as="targetPoint" />
          </mxGeometry>
        </mxCell>
        <mxCell id="jHbDXK00eHfmieeJK_Rx-10" value="type" style="ellipse;whiteSpace=wrap;html=1;align=center;fillColor=#dae8fc;strokeColor=#6c8ebf;" vertex="1" parent="1">
          <mxGeometry x="300" y="440" width="100" height="40" as="geometry" />
        </mxCell>
        <mxCell id="eiXiW1uyRQpHch4rzFC7-4" value="ComplaintID" style="ellipse;whiteSpace=wrap;html=1;align=center;fontStyle=4;fillColor=#dae8fc;strokeColor=#6c8ebf;" vertex="1" parent="1">
          <mxGeometry x="897" y="658" width="100" height="40" as="geometry" />
        </mxCell>
        <mxCell id="Lrfri0rjpBoafnMVy41J-8" style="rounded=0;orthogonalLoop=1;jettySize=auto;html=1;entryX=1;entryY=0.5;entryDx=0;entryDy=0;endArrow=none;endFill=0;fillColor=#dae8fc;strokeColor=#6c8ebf;" edge="1" parent="1" source="XUcRkxnszK5dJNryLseu-1" target="Lrfri0rjpBoafnMVy41J-1">
          <mxGeometry relative="1" as="geometry" />
        </mxCell>
        <mxCell id="XUcRkxnszK5dJNryLseu-1" value="date-time" style="ellipse;whiteSpace=wrap;html=1;fillColor=#dae8fc;strokeColor=#6c8ebf;" vertex="1" parent="1">
          <mxGeometry x="1890" y="530" width="90" height="40" as="geometry" />
        </mxCell>
        <mxCell id="Lrfri0rjpBoafnMVy41J-1" value="DayPackage" style="whiteSpace=wrap;html=1;fillColor=#dae8fc;strokeColor=#6c8ebf;" vertex="1" parent="1">
          <mxGeometry x="1635" y="520" width="120" height="60" as="geometry" />
        </mxCell>
        <mxCell id="Lrfri0rjpBoafnMVy41J-4" style="rounded=0;orthogonalLoop=1;jettySize=auto;html=1;exitX=1;exitY=1;exitDx=0;exitDy=0;endArrow=open;endFill=0;fillColor=#dae8fc;strokeColor=#6c8ebf;entryX=0.086;entryY=0.014;entryDx=0;entryDy=0;entryPerimeter=0;" edge="1" parent="1" source="Lrfri0rjpBoafnMVy41J-3" target="DJmNyeJXOnHaQmtomHHY-2">
          <mxGeometry relative="1" as="geometry">
            <mxPoint x="190" y="920" as="targetPoint" />
          </mxGeometry>
        </mxCell>
        <mxCell id="Lrfri0rjpBoafnMVy41J-3" value="Have" style="shape=rhombus;perimeter=rhombusPerimeter;whiteSpace=wrap;html=1;align=center;fillColor=#dae8fc;strokeColor=#6c8ebf;" vertex="1" parent="1">
          <mxGeometry x="614" y="778" width="70" height="50" as="geometry" />
        </mxCell>
        <mxCell id="XUcRkxnszK5dJNryLseu-10" value="" style="html=1;rounded=0;endArrow=none;endFill=0;exitX=0;exitY=0.5;exitDx=0;exitDy=0;fillColor=#dae8fc;strokeColor=#6c8ebf;entryX=1;entryY=0.5;entryDx=0;entryDy=0;" edge="1" parent="1" source="eiXiW1uyRQpHch4rzFC7-4" target="w4JCF7AyKfzk5Y68rzHO-1">
          <mxGeometry width="100" relative="1" as="geometry">
            <mxPoint x="440.5" y="976.5" as="sourcePoint" />
            <mxPoint x="837" y="578" as="targetPoint" />
          </mxGeometry>
        </mxCell>
        <mxCell id="eiXiW1uyRQpHch4rzFC7-8" value="" style="rounded=0;orthogonalLoop=1;jettySize=auto;html=1;endArrow=none;endFill=0;fillColor=#dae8fc;strokeColor=#6c8ebf;entryX=0.5;entryY=1;entryDx=0;entryDy=0;exitX=0;exitY=0;exitDx=0;exitDy=0;" edge="1" parent="1" source="Lrfri0rjpBoafnMVy41J-3" target="OXqYIGwQ-AyHsIIW2JmJ-16">
          <mxGeometry relative="1" as="geometry" />
        </mxCell>
        <mxCell id="Lrfri0rjpBoafnMVy41J-6" value="&lt;u&gt;PackageID&lt;/u&gt;" style="ellipse;whiteSpace=wrap;html=1;fillColor=#dae8fc;strokeColor=#6c8ebf;" vertex="1" parent="1">
          <mxGeometry x="1890" y="470" width="90" height="40" as="geometry" />
        </mxCell>
        <mxCell id="Lrfri0rjpBoafnMVy41J-7" style="rounded=0;orthogonalLoop=1;jettySize=auto;html=1;endArrow=none;endFill=0;fillColor=#dae8fc;strokeColor=#6c8ebf;exitX=1;exitY=0.25;exitDx=0;exitDy=0;" edge="1" parent="1" source="Lrfri0rjpBoafnMVy41J-1" target="Lrfri0rjpBoafnMVy41J-6">
          <mxGeometry relative="1" as="geometry" />
        </mxCell>
        <mxCell id="XUcRkxnszK5dJNryLseu-12" value="" style="endArrow=none;html=1;rounded=0;entryX=1;entryY=1;entryDx=0;entryDy=0;exitX=0.5;exitY=0;exitDx=0;exitDy=0;fillColor=#dae8fc;strokeColor=#6c8ebf;" edge="1" parent="1" source="XUcRkxnszK5dJNryLseu-13" target="bwthoGPY4zgi1K1K-MdN-1">
          <mxGeometry width="50" height="50" relative="1" as="geometry">
            <mxPoint x="790" y="410" as="sourcePoint" />
            <mxPoint x="840" y="360" as="targetPoint" />
          </mxGeometry>
        </mxCell>
        <mxCell id="Lrfri0rjpBoafnMVy41J-13" style="rounded=0;orthogonalLoop=1;jettySize=auto;html=1;entryX=0.5;entryY=0;entryDx=0;entryDy=0;endArrow=none;endFill=0;fillColor=#dae8fc;strokeColor=#6c8ebf;exitX=0.5;exitY=1;exitDx=0;exitDy=0;" edge="1" parent="1" source="Lrfri0rjpBoafnMVy41J-9" target="Lrfri0rjpBoafnMVy41J-12">
          <mxGeometry relative="1" as="geometry" />
        </mxCell>
        <mxCell id="Lrfri0rjpBoafnMVy41J-9" value="Related" style="shape=rhombus;perimeter=rhombusPerimeter;whiteSpace=wrap;html=1;align=center;fillColor=#dae8fc;strokeColor=#6c8ebf;" vertex="1" parent="1">
          <mxGeometry x="894.5" y="1261" width="81" height="39" as="geometry" />
        </mxCell>
        <mxCell id="Lrfri0rjpBoafnMVy41J-10" style="rounded=0;orthogonalLoop=1;jettySize=auto;html=1;endArrow=none;endFill=0;startArrow=none;startFill=0;exitX=0;exitY=0.5;exitDx=0;exitDy=0;fillColor=#dae8fc;strokeColor=#6c8ebf;entryX=0.179;entryY=1.017;entryDx=0;entryDy=0;edgeStyle=orthogonalEdgeStyle;entryPerimeter=0;" edge="1" parent="1" source="Lrfri0rjpBoafnMVy41J-9" target="DJmNyeJXOnHaQmtomHHY-2">
          <mxGeometry relative="1" as="geometry">
            <mxPoint x="875" y="1245" as="sourcePoint" />
            <mxPoint x="895" y="1115" as="targetPoint" />
            <Array as="points">
              <mxPoint x="886" y="1281" />
              <mxPoint x="887" y="1281" />
            </Array>
          </mxGeometry>
        </mxCell>
        <mxCell id="Lrfri0rjpBoafnMVy41J-12" value="relationship" style="ellipse;whiteSpace=wrap;html=1;align=center;fillColor=#dae8fc;strokeColor=#6c8ebf;" vertex="1" parent="1">
          <mxGeometry x="834" y="1350" width="95" height="40" as="geometry" />
        </mxCell>
        <mxCell id="XUcRkxnszK5dJNryLseu-15" value="" style="endArrow=none;html=1;rounded=0;exitX=0.5;exitY=0;exitDx=0;exitDy=0;entryX=0.5;entryY=1;entryDx=0;entryDy=0;fillColor=#dae8fc;strokeColor=#6c8ebf;" edge="1" parent="1" source="Lrfri0rjpBoafnMVy41J-1" target="XUcRkxnszK5dJNryLseu-13">
          <mxGeometry width="50" height="50" relative="1" as="geometry">
            <mxPoint x="800" y="472.5" as="sourcePoint" />
            <mxPoint x="740" y="602.5" as="targetPoint" />
          </mxGeometry>
        </mxCell>
        <mxCell id="XUcRkxnszK5dJNryLseu-13" value="Itinerary" style="rhombus;whiteSpace=wrap;html=1;fillColor=#dae8fc;strokeColor=#6c8ebf;" vertex="1" parent="1">
          <mxGeometry x="1640" y="275" width="110" height="55" as="geometry" />
        </mxCell>
        <mxCell id="XUcRkxnszK5dJNryLseu-17" value="SignUp" style="shape=rhombus;perimeter=rhombusPerimeter;whiteSpace=wrap;html=1;align=center;fillColor=#dae8fc;strokeColor=#6c8ebf;" vertex="1" parent="1">
          <mxGeometry x="1645" y="798" width="100" height="75" as="geometry" />
        </mxCell>
        <mxCell id="XUcRkxnszK5dJNryLseu-18" value="" style="endArrow=none;html=1;rounded=0;exitX=1;exitY=0;exitDx=0;exitDy=0;entryX=0;entryY=0.5;entryDx=0;entryDy=0;fillColor=#dae8fc;strokeColor=#6c8ebf;" edge="1" parent="1" source="DJmNyeJXOnHaQmtomHHY-2" target="XUcRkxnszK5dJNryLseu-17">
          <mxGeometry width="50" height="50" relative="1" as="geometry">
            <mxPoint x="490" y="810" as="sourcePoint" />
            <mxPoint x="540" y="760" as="targetPoint" />
          </mxGeometry>
        </mxCell>
        <mxCell id="XUcRkxnszK5dJNryLseu-19" value="" style="endArrow=none;html=1;rounded=0;entryX=0.5;entryY=0;entryDx=0;entryDy=0;exitX=0.5;exitY=1;exitDx=0;exitDy=0;fillColor=#dae8fc;strokeColor=#6c8ebf;" edge="1" parent="1" source="Lrfri0rjpBoafnMVy41J-1" target="XUcRkxnszK5dJNryLseu-17">
          <mxGeometry width="50" height="50" relative="1" as="geometry">
            <mxPoint x="700" y="732.5" as="sourcePoint" />
            <mxPoint x="557" y="882.5" as="targetPoint" />
          </mxGeometry>
        </mxCell>
        <mxCell id="01TBH7JJbe1lm_0BzT9m-2" value="" style="endArrow=none;html=1;rounded=0;exitX=0.75;exitY=0;exitDx=0;exitDy=0;entryX=0.5;entryY=1;entryDx=0;entryDy=0;fillColor=#dae8fc;strokeColor=#6c8ebf;" edge="1" parent="1" source="DJmNyeJXOnHaQmtomHHY-2" target="01TBH7JJbe1lm_0BzT9m-4">
          <mxGeometry width="50" height="50" relative="1" as="geometry">
            <mxPoint x="270" y="920" as="sourcePoint" />
            <mxPoint x="500" y="580" as="targetPoint" />
          </mxGeometry>
        </mxCell>
        <mxCell id="01TBH7JJbe1lm_0BzT9m-4" value="Visit" style="rhombus;whiteSpace=wrap;html=1;fillColor=#dae8fc;strokeColor=#6c8ebf;" vertex="1" parent="1">
          <mxGeometry x="1267" y="557.5" width="110" height="55" as="geometry" />
        </mxCell>
        <mxCell id="XUcRkxnszK5dJNryLseu-20" value="rating" style="ellipse;whiteSpace=wrap;html=1;align=center;fillColor=#dae8fc;strokeColor=#6c8ebf;" vertex="1" parent="1">
          <mxGeometry x="730" y="-117" width="80" height="40" as="geometry" />
        </mxCell>
        <mxCell id="01TBH7JJbe1lm_0BzT9m-5" value="" style="endArrow=none;html=1;rounded=0;exitX=0.5;exitY=0;exitDx=0;exitDy=0;entryX=0.75;entryY=1;entryDx=0;entryDy=0;fillColor=#dae8fc;strokeColor=#6c8ebf;" edge="1" parent="1" source="01TBH7JJbe1lm_0BzT9m-4" target="bwthoGPY4zgi1K1K-MdN-1">
          <mxGeometry width="50" height="50" relative="1" as="geometry">
            <mxPoint x="510" y="410" as="sourcePoint" />
            <mxPoint x="560" y="360" as="targetPoint" />
          </mxGeometry>
        </mxCell>
        <mxCell id="01TBH7JJbe1lm_0BzT9m-6" value="" style="endArrow=none;html=1;rounded=0;exitX=1;exitY=0;exitDx=0;exitDy=0;entryX=0.5;entryY=1;entryDx=0;entryDy=0;fillColor=#dae8fc;strokeColor=#6c8ebf;" edge="1" parent="1" source="01TBH7JJbe1lm_0BzT9m-4" target="01TBH7JJbe1lm_0BzT9m-7">
          <mxGeometry width="50" height="50" relative="1" as="geometry">
            <mxPoint x="1122" y="255.5" as="sourcePoint" />
            <mxPoint x="1212" y="315.5" as="targetPoint" />
            <Array as="points" />
          </mxGeometry>
        </mxCell>
        <mxCell id="01TBH7JJbe1lm_0BzT9m-7" value="date-time" style="ellipse;whiteSpace=wrap;html=1;align=center;fillColor=#dae8fc;strokeColor=#6c8ebf;" vertex="1" parent="1">
          <mxGeometry x="1322" y="450" width="100" height="40" as="geometry" />
        </mxCell>
        <mxCell id="lWCPdIbq8eET8ltGK8iL-3" value="" style="endArrow=none;html=1;rounded=0;entryX=0.5;entryY=1;entryDx=0;entryDy=0;exitX=0.75;exitY=0;exitDx=0;exitDy=0;fillColor=#dae8fc;strokeColor=#6c8ebf;" edge="1" parent="1" source="bwthoGPY4zgi1K1K-MdN-1" target="XUcRkxnszK5dJNryLseu-20">
          <mxGeometry width="50" height="50" relative="1" as="geometry">
            <mxPoint x="577" y="392" as="sourcePoint" />
            <mxPoint x="627" y="342" as="targetPoint" />
          </mxGeometry>
        </mxCell>
        <mxCell id="MgpVTpHmpH2QPh2ng6by-3" style="rounded=0;orthogonalLoop=1;jettySize=auto;html=1;entryX=0.5;entryY=1;entryDx=0;entryDy=0;endArrow=none;endFill=0;fillColor=#dae8fc;strokeColor=#6c8ebf;exitX=0.25;exitY=0;exitDx=0;exitDy=0;" edge="1" parent="1" source="DJmNyeJXOnHaQmtomHHY-10" target="MgpVTpHmpH2QPh2ng6by-4">
          <mxGeometry relative="1" as="geometry">
            <mxPoint x="394" y="100" as="sourcePoint" />
          </mxGeometry>
        </mxCell>
        <mxCell id="MgpVTpHmpH2QPh2ng6by-4" value="ID" style="ellipse;whiteSpace=wrap;html=1;align=center;fontStyle=4;fillColor=#dae8fc;strokeColor=#6c8ebf;" vertex="1" parent="1">
          <mxGeometry x="-68" y="-74.5" width="90" height="40" as="geometry" />
        </mxCell>
        <mxCell id="MgpVTpHmpH2QPh2ng6by-5" value="name" style="ellipse;whiteSpace=wrap;html=1;align=center;fillColor=#dae8fc;strokeColor=#6c8ebf;" vertex="1" parent="1">
          <mxGeometry x="-120" y="2.5" width="80" height="40" as="geometry" />
        </mxCell>
        <mxCell id="MgpVTpHmpH2QPh2ng6by-6" style="rounded=0;orthogonalLoop=1;jettySize=auto;html=1;entryX=1;entryY=0.5;entryDx=0;entryDy=0;endArrow=none;endFill=0;fillColor=#dae8fc;strokeColor=#6c8ebf;exitX=0;exitY=0.5;exitDx=0;exitDy=0;" edge="1" parent="1" source="slolwJeSWKeAAmXaZOgp-9" target="MgpVTpHmpH2QPh2ng6by-9">
          <mxGeometry relative="1" as="geometry">
            <mxPoint x="761" y="440" as="sourcePoint" />
            <mxPoint x="716" y="390" as="targetPoint" />
          </mxGeometry>
        </mxCell>
        <mxCell id="MgpVTpHmpH2QPh2ng6by-7" style="rounded=0;orthogonalLoop=1;jettySize=auto;html=1;entryX=1;entryY=0.5;entryDx=0;entryDy=0;endArrow=none;endFill=0;fillColor=#dae8fc;strokeColor=#6c8ebf;exitX=0;exitY=0.5;exitDx=0;exitDy=0;" edge="1" parent="1" source="slolwJeSWKeAAmXaZOgp-9" target="MgpVTpHmpH2QPh2ng6by-8">
          <mxGeometry relative="1" as="geometry">
            <mxPoint x="811" y="440" as="sourcePoint" />
          </mxGeometry>
        </mxCell>
        <mxCell id="MgpVTpHmpH2QPh2ng6by-8" value="ID" style="ellipse;whiteSpace=wrap;html=1;align=center;fontStyle=4;fillColor=#dae8fc;strokeColor=#6c8ebf;" vertex="1" parent="1">
          <mxGeometry x="604" y="290" width="90" height="40" as="geometry" />
        </mxCell>
        <mxCell id="MgpVTpHmpH2QPh2ng6by-9" value="name" style="ellipse;whiteSpace=wrap;html=1;align=center;fillColor=#dae8fc;strokeColor=#6c8ebf;" vertex="1" parent="1">
          <mxGeometry x="604" y="367" width="90" height="35" as="geometry" />
        </mxCell>
        <mxCell id="MgpVTpHmpH2QPh2ng6by-11" style="rounded=0;orthogonalLoop=1;jettySize=auto;html=1;endArrow=none;endFill=0;fillColor=#dae8fc;strokeColor=#6c8ebf;entryX=0.25;entryY=1;entryDx=0;entryDy=0;exitX=1;exitY=0.5;exitDx=0;exitDy=0;" edge="1" parent="1" source="MgpVTpHmpH2QPh2ng6by-10" target="OXqYIGwQ-AyHsIIW2JmJ-16">
          <mxGeometry relative="1" as="geometry">
            <mxPoint x="388" y="448" as="targetPoint" />
          </mxGeometry>
        </mxCell>
        <mxCell id="MgpVTpHmpH2QPh2ng6by-10" value="&lt;u&gt;VoucherID&lt;/u&gt;" style="ellipse;whiteSpace=wrap;html=1;align=center;fillColor=#dae8fc;strokeColor=#6c8ebf;" vertex="1" parent="1">
          <mxGeometry x="290" y="575" width="100" height="38" as="geometry" />
        </mxCell>
        <mxCell id="MgpVTpHmpH2QPh2ng6by-13" value="discount amount" style="ellipse;whiteSpace=wrap;html=1;align=center;fillColor=#dae8fc;strokeColor=#6c8ebf;" vertex="1" parent="1">
          <mxGeometry x="400" y="620.5" width="100" height="40" as="geometry" />
        </mxCell>
        <mxCell id="MgpVTpHmpH2QPh2ng6by-14" style="rounded=0;orthogonalLoop=1;jettySize=auto;html=1;endArrow=none;endFill=0;fillColor=#dae8fc;strokeColor=#6c8ebf;entryX=0.25;entryY=1;entryDx=0;entryDy=0;exitX=0.5;exitY=0;exitDx=0;exitDy=0;" edge="1" parent="1" source="MgpVTpHmpH2QPh2ng6by-13" target="OXqYIGwQ-AyHsIIW2JmJ-16">
          <mxGeometry relative="1" as="geometry">
            <mxPoint x="385" y="442" as="targetPoint" />
          </mxGeometry>
        </mxCell>
        <mxCell id="DWiTNE3PNAIVU2xgaDtb-5" style="rounded=0;orthogonalLoop=1;jettySize=auto;html=1;entryX=0.25;entryY=0;entryDx=0;entryDy=0;endArrow=none;endFill=0;fillColor=#dae8fc;strokeColor=#6c8ebf;exitX=0.5;exitY=1;exitDx=0;exitDy=0;" edge="1" parent="1" source="w4JCF7AyKfzk5Y68rzHO-1" target="DJmNyeJXOnHaQmtomHHY-2">
          <mxGeometry relative="1" as="geometry">
            <mxPoint x="658.5" y="900" as="sourcePoint" />
            <mxPoint x="865" y="1090" as="targetPoint" />
          </mxGeometry>
        </mxCell>
        <mxCell id="DWiTNE3PNAIVU2xgaDtb-6" value="User Preference" style="rounded=0;whiteSpace=wrap;html=1;fillColor=#dae8fc;strokeColor=#6c8ebf;" vertex="1" parent="1">
          <mxGeometry x="644" y="1350" width="120" height="60" as="geometry" />
        </mxCell>
        <mxCell id="DWiTNE3PNAIVU2xgaDtb-7" value="Have" style="shape=rhombus;perimeter=rhombusPerimeter;whiteSpace=wrap;html=1;align=center;fillColor=#dae8fc;strokeColor=#6c8ebf;" vertex="1" parent="1">
          <mxGeometry x="669" y="1261" width="70" height="50" as="geometry" />
        </mxCell>
        <mxCell id="DWiTNE3PNAIVU2xgaDtb-13" value="" style="shape=requiredInterface;html=1;verticalLabelPosition=bottom;sketch=0;rotation=-35;fillColor=#dae8fc;strokeColor=#6c8ebf;whiteSpace=wrap;" vertex="1" parent="1">
          <mxGeometry x="867" y="1112" width="10" height="12" as="geometry" />
        </mxCell>
        <mxCell id="DWiTNE3PNAIVU2xgaDtb-14" style="rounded=0;orthogonalLoop=1;jettySize=auto;html=1;entryX=0.088;entryY=1.002;entryDx=0;entryDy=0;entryPerimeter=0;endArrow=none;endFill=0;exitX=0.5;exitY=0;exitDx=0;exitDy=0;fillColor=#dae8fc;strokeColor=#6c8ebf;" edge="1" parent="1" source="DWiTNE3PNAIVU2xgaDtb-7" target="DJmNyeJXOnHaQmtomHHY-2">
          <mxGeometry relative="1" as="geometry">
            <mxPoint x="768" y="1326" as="sourcePoint" />
            <mxPoint x="872" y="1117" as="targetPoint" />
          </mxGeometry>
        </mxCell>
        <mxCell id="DWiTNE3PNAIVU2xgaDtb-15" value="" style="endArrow=none;html=1;rounded=0;exitX=0.5;exitY=0;exitDx=0;exitDy=0;entryX=0.5;entryY=1;entryDx=0;entryDy=0;startArrow=open;startFill=0;fillColor=#dae8fc;strokeColor=#6c8ebf;" edge="1" parent="1" source="DWiTNE3PNAIVU2xgaDtb-6" target="DWiTNE3PNAIVU2xgaDtb-7">
          <mxGeometry relative="1" as="geometry">
            <mxPoint x="765" y="1224.55" as="sourcePoint" />
            <mxPoint x="845" y="1224.55" as="targetPoint" />
          </mxGeometry>
        </mxCell>
        <mxCell id="DWiTNE3PNAIVU2xgaDtb-16" value="language" style="ellipse;whiteSpace=wrap;html=1;align=center;fillColor=#dae8fc;strokeColor=#6c8ebf;" vertex="1" parent="1">
          <mxGeometry x="576" y="1460" width="100" height="40" as="geometry" />
        </mxCell>
        <mxCell id="DWiTNE3PNAIVU2xgaDtb-17" value="learned information" style="ellipse;whiteSpace=wrap;html=1;align=center;fillColor=#dae8fc;strokeColor=#6c8ebf;" vertex="1" parent="1">
          <mxGeometry x="734" y="1460" width="100" height="40" as="geometry" />
        </mxCell>
        <mxCell id="DWiTNE3PNAIVU2xgaDtb-18" style="rounded=0;orthogonalLoop=1;jettySize=auto;html=1;entryX=0.5;entryY=0;entryDx=0;entryDy=0;endArrow=none;endFill=0;fillColor=#dae8fc;strokeColor=#6c8ebf;exitX=0.25;exitY=1;exitDx=0;exitDy=0;" edge="1" parent="1" source="DWiTNE3PNAIVU2xgaDtb-6" target="DWiTNE3PNAIVU2xgaDtb-16">
          <mxGeometry relative="1" as="geometry">
            <mxPoint x="820" y="1321" as="sourcePoint" />
            <mxPoint x="820" y="1367" as="targetPoint" />
          </mxGeometry>
        </mxCell>
        <mxCell id="DWiTNE3PNAIVU2xgaDtb-19" style="rounded=0;orthogonalLoop=1;jettySize=auto;html=1;entryX=0.5;entryY=0;entryDx=0;entryDy=0;endArrow=none;endFill=0;fillColor=#dae8fc;strokeColor=#6c8ebf;exitX=0.75;exitY=1;exitDx=0;exitDy=0;" edge="1" parent="1" source="DWiTNE3PNAIVU2xgaDtb-6" target="DWiTNE3PNAIVU2xgaDtb-17">
          <mxGeometry relative="1" as="geometry">
            <mxPoint x="875" y="1315" as="sourcePoint" />
            <mxPoint x="875" y="1361" as="targetPoint" />
          </mxGeometry>
        </mxCell>
        <mxCell id="lZeAHrLUnZliuIAY2SoR-3" style="rounded=0;orthogonalLoop=1;jettySize=auto;html=1;entryX=0.5;entryY=0;entryDx=0;entryDy=0;exitX=0.5;exitY=1;exitDx=0;exitDy=0;fillColor=#dae8fc;strokeColor=#6c8ebf;endArrow=none;endFill=0;" edge="1" parent="1" source="lZeAHrLUnZliuIAY2SoR-2" target="OXqYIGwQ-AyHsIIW2JmJ-16">
          <mxGeometry relative="1" as="geometry">
            <mxPoint x="80" y="497.5" as="sourcePoint" />
          </mxGeometry>
        </mxCell>
        <mxCell id="lZeAHrLUnZliuIAY2SoR-4" style="rounded=0;orthogonalLoop=1;jettySize=auto;html=1;entryX=1;entryY=1;entryDx=0;entryDy=0;exitX=0;exitY=0;exitDx=0;exitDy=0;endArrow=open;endFill=0;fillColor=#dae8fc;strokeColor=#6c8ebf;" edge="1" parent="1" source="lZeAHrLUnZliuIAY2SoR-2" target="DJmNyeJXOnHaQmtomHHY-10">
          <mxGeometry relative="1" as="geometry" />
        </mxCell>
        <mxCell id="lZeAHrLUnZliuIAY2SoR-2" value="Used in" style="rhombus;whiteSpace=wrap;html=1;fillColor=#dae8fc;strokeColor=#6c8ebf;" vertex="1" parent="1">
          <mxGeometry x="395" y="290" width="110" height="55" as="geometry" />
        </mxCell>
        <mxCell id="lZeAHrLUnZliuIAY2SoR-6" style="rounded=0;orthogonalLoop=1;jettySize=auto;html=1;entryX=1;entryY=0;entryDx=0;entryDy=0;fillColor=#dae8fc;strokeColor=#6c8ebf;endArrow=none;endFill=0;exitX=0;exitY=1;exitDx=0;exitDy=0;" edge="1" parent="1" source="lZeAHrLUnZliuIAY2SoR-5" target="lZeAHrLUnZliuIAY2SoR-2">
          <mxGeometry relative="1" as="geometry" />
        </mxCell>
        <mxCell id="lZeAHrLUnZliuIAY2SoR-5" value="date-time" style="ellipse;whiteSpace=wrap;html=1;align=center;fillColor=#dae8fc;strokeColor=#6c8ebf;" vertex="1" parent="1">
          <mxGeometry x="527" y="207.5" width="70" height="40" as="geometry" />
        </mxCell>
        <mxCell id="lZeAHrLUnZliuIAY2SoR-9" style="rounded=0;orthogonalLoop=1;jettySize=auto;html=1;entryX=0.25;entryY=1;entryDx=0;entryDy=0;endArrow=open;endFill=0;fillColor=#dae8fc;strokeColor=#6c8ebf;exitX=0.5;exitY=0;exitDx=0;exitDy=0;" edge="1" parent="1" source="lZeAHrLUnZliuIAY2SoR-7" target="slolwJeSWKeAAmXaZOgp-9">
          <mxGeometry relative="1" as="geometry" />
        </mxCell>
        <mxCell id="lZeAHrLUnZliuIAY2SoR-7" value="Used in" style="rhombus;whiteSpace=wrap;html=1;fillColor=#dae8fc;strokeColor=#6c8ebf;" vertex="1" parent="1">
          <mxGeometry x="636" y="548" width="110" height="55" as="geometry" />
        </mxCell>
        <mxCell id="lZeAHrLUnZliuIAY2SoR-11" style="rounded=0;orthogonalLoop=1;jettySize=auto;html=1;entryX=0;entryY=0;entryDx=0;entryDy=0;fillColor=#dae8fc;strokeColor=#6c8ebf;endArrow=none;endFill=0;exitX=0.5;exitY=1;exitDx=0;exitDy=0;" edge="1" parent="1" source="lZeAHrLUnZliuIAY2SoR-10" target="lZeAHrLUnZliuIAY2SoR-7">
          <mxGeometry relative="1" as="geometry" />
        </mxCell>
        <mxCell id="lZeAHrLUnZliuIAY2SoR-10" value="date-time" style="ellipse;whiteSpace=wrap;html=1;align=center;fillColor=#dae8fc;strokeColor=#6c8ebf;" vertex="1" parent="1">
          <mxGeometry x="611" y="460" width="70" height="40" as="geometry" />
        </mxCell>
        <mxCell id="lZeAHrLUnZliuIAY2SoR-15" style="rounded=0;orthogonalLoop=1;jettySize=auto;html=1;entryX=0.5;entryY=1;entryDx=0;entryDy=0;fillColor=#dae8fc;strokeColor=#6c8ebf;endArrow=none;endFill=0;exitX=0.5;exitY=0;exitDx=0;exitDy=0;" edge="1" parent="1" source="lZeAHrLUnZliuIAY2SoR-13" target="DJmNyeJXOnHaQmtomHHY-10">
          <mxGeometry relative="1" as="geometry" />
        </mxCell>
        <mxCell id="lZeAHrLUnZliuIAY2SoR-13" value="Dined-in" style="rhombus;whiteSpace=wrap;html=1;fillColor=#dae8fc;strokeColor=#6c8ebf;" vertex="1" parent="1">
          <mxGeometry x="160" y="960" width="110" height="55" as="geometry" />
        </mxCell>
        <mxCell id="lZeAHrLUnZliuIAY2SoR-18" style="rounded=0;orthogonalLoop=1;jettySize=auto;html=1;entryX=0.75;entryY=1;entryDx=0;entryDy=0;exitX=0.5;exitY=0;exitDx=0;exitDy=0;fillColor=#dae8fc;strokeColor=#6c8ebf;endArrow=none;endFill=0;" edge="1" parent="1" source="lZeAHrLUnZliuIAY2SoR-16" target="slolwJeSWKeAAmXaZOgp-9">
          <mxGeometry relative="1" as="geometry" />
        </mxCell>
        <mxCell id="lZeAHrLUnZliuIAY2SoR-16" value="Shopped-in" style="rhombus;whiteSpace=wrap;html=1;fillColor=#dae8fc;strokeColor=#6c8ebf;" vertex="1" parent="1">
          <mxGeometry x="1030" y="570" width="110" height="55" as="geometry" />
        </mxCell>
        <mxCell id="lZeAHrLUnZliuIAY2SoR-17" style="rounded=0;orthogonalLoop=1;jettySize=auto;html=1;exitX=0.5;exitY=1;exitDx=0;exitDy=0;fillColor=#dae8fc;strokeColor=#6c8ebf;endArrow=none;endFill=0;entryX=0.5;entryY=0;entryDx=0;entryDy=0;" edge="1" parent="1" source="lZeAHrLUnZliuIAY2SoR-16" target="DJmNyeJXOnHaQmtomHHY-2">
          <mxGeometry relative="1" as="geometry">
            <mxPoint x="880" y="1050" as="targetPoint" />
          </mxGeometry>
        </mxCell>
        <mxCell id="lZeAHrLUnZliuIAY2SoR-20" style="rounded=0;orthogonalLoop=1;jettySize=auto;html=1;entryX=0.5;entryY=1;entryDx=0;entryDy=0;fillColor=#dae8fc;strokeColor=#6c8ebf;endArrow=none;endFill=0;" edge="1" parent="1" source="lZeAHrLUnZliuIAY2SoR-19" target="lZeAHrLUnZliuIAY2SoR-13">
          <mxGeometry relative="1" as="geometry" />
        </mxCell>
        <mxCell id="lZeAHrLUnZliuIAY2SoR-19" value="date-time" style="ellipse;whiteSpace=wrap;html=1;align=center;fillColor=#dae8fc;strokeColor=#6c8ebf;" vertex="1" parent="1">
          <mxGeometry x="240" y="1053" width="70" height="40" as="geometry" />
        </mxCell>
        <mxCell id="lZeAHrLUnZliuIAY2SoR-22" style="rounded=0;orthogonalLoop=1;jettySize=auto;html=1;fillColor=#dae8fc;strokeColor=#6c8ebf;endArrow=none;endFill=0;entryX=0;entryY=0;entryDx=0;entryDy=0;" edge="1" parent="1" source="lZeAHrLUnZliuIAY2SoR-21" target="lZeAHrLUnZliuIAY2SoR-13">
          <mxGeometry relative="1" as="geometry" />
        </mxCell>
        <mxCell id="lZeAHrLUnZliuIAY2SoR-21" value="Money Spent" style="ellipse;whiteSpace=wrap;html=1;align=center;fillColor=#dae8fc;strokeColor=#6c8ebf;" vertex="1" parent="1">
          <mxGeometry x="70" y="930" width="70" height="40" as="geometry" />
        </mxCell>
        <mxCell id="lZeAHrLUnZliuIAY2SoR-25" style="rounded=0;orthogonalLoop=1;jettySize=auto;html=1;entryX=1;entryY=0.5;entryDx=0;entryDy=0;fillColor=#dae8fc;strokeColor=#6c8ebf;endArrow=none;endFill=0;exitX=0;exitY=0.5;exitDx=0;exitDy=0;" edge="1" parent="1" source="lZeAHrLUnZliuIAY2SoR-23" target="lZeAHrLUnZliuIAY2SoR-16">
          <mxGeometry relative="1" as="geometry" />
        </mxCell>
        <mxCell id="lZeAHrLUnZliuIAY2SoR-23" value="date-time" style="ellipse;whiteSpace=wrap;html=1;align=center;fillColor=#dae8fc;strokeColor=#6c8ebf;" vertex="1" parent="1">
          <mxGeometry x="1160" y="530" width="70" height="40" as="geometry" />
        </mxCell>
        <mxCell id="lZeAHrLUnZliuIAY2SoR-24" value="Money Spent" style="ellipse;whiteSpace=wrap;html=1;align=center;fillColor=#dae8fc;strokeColor=#6c8ebf;" vertex="1" parent="1">
          <mxGeometry x="1160" y="620" width="70" height="40" as="geometry" />
        </mxCell>
        <mxCell id="lZeAHrLUnZliuIAY2SoR-26" style="rounded=0;orthogonalLoop=1;jettySize=auto;html=1;fillColor=#dae8fc;strokeColor=#6c8ebf;endArrow=none;endFill=0;exitX=0;exitY=0.5;exitDx=0;exitDy=0;entryX=1;entryY=0.5;entryDx=0;entryDy=0;" edge="1" parent="1" source="lZeAHrLUnZliuIAY2SoR-24" target="lZeAHrLUnZliuIAY2SoR-16">
          <mxGeometry relative="1" as="geometry">
            <mxPoint x="-17" y="417" as="sourcePoint" />
            <mxPoint x="1223" y="588" as="targetPoint" />
          </mxGeometry>
        </mxCell>
        <mxCell id="FSxuHim13W2Q4T-SslQ0-1" value="price" style="ellipse;whiteSpace=wrap;html=1;fillColor=#dae8fc;strokeColor=#6c8ebf;" vertex="1" parent="1">
          <mxGeometry x="1890" y="588" width="90" height="40" as="geometry" />
        </mxCell>
        <mxCell id="FSxuHim13W2Q4T-SslQ0-2" style="rounded=0;orthogonalLoop=1;jettySize=auto;html=1;endArrow=none;endFill=0;fillColor=#dae8fc;strokeColor=#6c8ebf;entryX=1;entryY=0.75;entryDx=0;entryDy=0;exitX=0;exitY=0.5;exitDx=0;exitDy=0;" edge="1" parent="1" source="FSxuHim13W2Q4T-SslQ0-1" target="Lrfri0rjpBoafnMVy41J-1">
          <mxGeometry relative="1" as="geometry">
            <mxPoint x="1381" y="667.5" as="sourcePoint" />
            <mxPoint x="1280" y="712.5" as="targetPoint" />
          </mxGeometry>
        </mxCell>
        <mxCell id="lZeAHrLUnZliuIAY2SoR-33" style="rounded=0;orthogonalLoop=1;jettySize=auto;html=1;entryX=1;entryY=0.5;entryDx=0;entryDy=0;fillColor=#dae8fc;strokeColor=#6c8ebf;endArrow=none;endFill=0;" edge="1" parent="1" source="lZeAHrLUnZliuIAY2SoR-32" target="XUcRkxnszK5dJNryLseu-17">
          <mxGeometry relative="1" as="geometry" />
        </mxCell>
        <mxCell id="lZeAHrLUnZliuIAY2SoR-32" value="date-time" style="ellipse;whiteSpace=wrap;html=1;fillColor=#dae8fc;strokeColor=#6c8ebf;" vertex="1" parent="1">
          <mxGeometry x="1880" y="815.5" width="90" height="40" as="geometry" />
        </mxCell>
        <mxCell id="w4JCF7AyKfzk5Y68rzHO-2" style="rounded=0;orthogonalLoop=1;jettySize=auto;html=1;entryX=0.5;entryY=1;entryDx=0;entryDy=0;fillColor=#dae8fc;strokeColor=#6c8ebf;exitX=0.5;exitY=0;exitDx=0;exitDy=0;endArrow=none;endFill=0;" edge="1" parent="1" source="w4JCF7AyKfzk5Y68rzHO-1" target="slolwJeSWKeAAmXaZOgp-9">
          <mxGeometry relative="1" as="geometry" />
        </mxCell>
        <mxCell id="w4JCF7AyKfzk5Y68rzHO-1" value="complain" style="rhombus;whiteSpace=wrap;html=1;fillColor=#dae8fc;strokeColor=#6c8ebf;" vertex="1" parent="1">
          <mxGeometry x="729" y="761" width="110" height="55" as="geometry" />
        </mxCell>
        <mxCell id="IJkNhprab3W6wLi_A3GS-20" value="recommended by app" style="rhombus;whiteSpace=wrap;html=1;fillColor=#dae8fc;strokeColor=#6c8ebf;" vertex="1" parent="1">
          <mxGeometry x="1450" y="485" width="137" height="55" as="geometry" />
        </mxCell>
        <mxCell id="IJkNhprab3W6wLi_A3GS-21" style="rounded=0;orthogonalLoop=1;jettySize=auto;html=1;exitX=0;exitY=1;exitDx=0;exitDy=0;fillColor=#dae8fc;strokeColor=#6c8ebf;endArrow=none;endFill=0;entryX=1;entryY=0;entryDx=0;entryDy=0;" edge="1" parent="1" source="IJkNhprab3W6wLi_A3GS-20" target="DJmNyeJXOnHaQmtomHHY-2">
          <mxGeometry relative="1" as="geometry">
            <mxPoint x="893" y="1066" as="targetPoint" />
            <mxPoint x="605" y="840" as="sourcePoint" />
          </mxGeometry>
        </mxCell>
        <mxCell id="w4JCF7AyKfzk5Y68rzHO-4" value="Details" style="ellipse;whiteSpace=wrap;html=1;align=center;fillColor=#dae8fc;strokeColor=#6c8ebf;" vertex="1" parent="1">
          <mxGeometry x="897" y="713" width="100" height="40" as="geometry" />
        </mxCell>
        <mxCell id="IJkNhprab3W6wLi_A3GS-22" style="rounded=0;orthogonalLoop=1;jettySize=auto;html=1;exitX=0.88;exitY=0.998;exitDx=0;exitDy=0;fillColor=#dae8fc;strokeColor=#6c8ebf;endArrow=none;endFill=0;entryX=0.5;entryY=0;entryDx=0;entryDy=0;exitPerimeter=0;" edge="1" parent="1" source="bwthoGPY4zgi1K1K-MdN-1" target="IJkNhprab3W6wLi_A3GS-20">
          <mxGeometry relative="1" as="geometry">
            <mxPoint x="965" y="1065" as="targetPoint" />
            <mxPoint x="1082" y="625" as="sourcePoint" />
          </mxGeometry>
        </mxCell>
        <mxCell id="w4JCF7AyKfzk5Y68rzHO-5" value="" style="html=1;rounded=0;endArrow=none;endFill=0;exitX=0;exitY=0.5;exitDx=0;exitDy=0;fillColor=#dae8fc;strokeColor=#6c8ebf;entryX=1;entryY=0.5;entryDx=0;entryDy=0;" edge="1" parent="1" source="w4JCF7AyKfzk5Y68rzHO-4" target="w4JCF7AyKfzk5Y68rzHO-1">
          <mxGeometry width="100" relative="1" as="geometry">
            <mxPoint x="885" y="709.5" as="sourcePoint" />
            <mxPoint x="823" y="701.5" as="targetPoint" />
          </mxGeometry>
        </mxCell>
        <mxCell id="w4JCF7AyKfzk5Y68rzHO-6" value="complain" style="rhombus;whiteSpace=wrap;html=1;fillColor=#dae8fc;strokeColor=#6c8ebf;" vertex="1" parent="1">
          <mxGeometry x="-30" y="1111" width="110" height="55" as="geometry" />
        </mxCell>
        <mxCell id="w4JCF7AyKfzk5Y68rzHO-8" style="rounded=0;orthogonalLoop=1;jettySize=auto;html=1;fillColor=#dae8fc;strokeColor=#6c8ebf;exitX=0.5;exitY=0;exitDx=0;exitDy=0;endArrow=none;endFill=0;entryX=0.5;entryY=1;entryDx=0;entryDy=0;startArrow=none;startFill=0;" edge="1" parent="1" source="w4JCF7AyKfzk5Y68rzHO-6" target="DJmNyeJXOnHaQmtomHHY-10">
          <mxGeometry relative="1" as="geometry">
            <mxPoint x="288" y="268" as="sourcePoint" />
            <mxPoint x="100" y="50" as="targetPoint" />
          </mxGeometry>
        </mxCell>
        <mxCell id="w4JCF7AyKfzk5Y68rzHO-9" value="date-time" style="ellipse;whiteSpace=wrap;html=1;align=center;fillColor=#dae8fc;strokeColor=#6c8ebf;" vertex="1" parent="1">
          <mxGeometry x="897" y="768.5" width="100" height="40" as="geometry" />
        </mxCell>
        <mxCell id="w4JCF7AyKfzk5Y68rzHO-10" value="" style="html=1;rounded=0;endArrow=none;endFill=0;exitX=0;exitY=0.5;exitDx=0;exitDy=0;fillColor=#dae8fc;strokeColor=#6c8ebf;entryX=1;entryY=0.5;entryDx=0;entryDy=0;" edge="1" parent="1" source="w4JCF7AyKfzk5Y68rzHO-9" target="w4JCF7AyKfzk5Y68rzHO-1">
          <mxGeometry width="100" relative="1" as="geometry">
            <mxPoint x="891" y="761.5" as="sourcePoint" />
            <mxPoint x="836" y="709.5" as="targetPoint" />
          </mxGeometry>
        </mxCell>
        <mxCell id="w4JCF7AyKfzk5Y68rzHO-11" value="" style="endArrow=none;html=1;rounded=0;exitX=0.5;exitY=1;exitDx=0;exitDy=0;entryX=0.5;entryY=0;entryDx=0;entryDy=0;fillColor=#dae8fc;strokeColor=#6c8ebf;" edge="1" parent="1" source="IJkNhprab3W6wLi_A3GS-20" target="w4JCF7AyKfzk5Y68rzHO-12">
          <mxGeometry width="50" height="50" relative="1" as="geometry">
            <mxPoint x="1822" y="547.5" as="sourcePoint" />
            <mxPoint x="1382" y="392" as="targetPoint" />
          </mxGeometry>
        </mxCell>
        <mxCell id="w4JCF7AyKfzk5Y68rzHO-12" value="date-time" style="ellipse;whiteSpace=wrap;html=1;align=center;fillColor=#dae8fc;strokeColor=#6c8ebf;" vertex="1" parent="1">
          <mxGeometry x="1477" y="629.5" width="100" height="40" as="geometry" />
        </mxCell>
        <mxCell id="N_hM5SdjFXWvrVBPsyQF-3" value="address" style="ellipse;whiteSpace=wrap;html=1;align=center;fillColor=#dae8fc;strokeColor=#6c8ebf;" vertex="1" parent="1">
          <mxGeometry x="42" y="-102" width="80" height="40" as="geometry" />
        </mxCell>
        <mxCell id="N_hM5SdjFXWvrVBPsyQF-4" value="opening hours" style="ellipse;whiteSpace=wrap;html=1;align=center;fillColor=#dae8fc;strokeColor=#6c8ebf;" vertex="1" parent="1">
          <mxGeometry x="132" y="-74.5" width="80" height="40" as="geometry" />
        </mxCell>
        <mxCell id="N_hM5SdjFXWvrVBPsyQF-6" style="rounded=0;orthogonalLoop=1;jettySize=auto;html=1;entryX=0.5;entryY=1;entryDx=0;entryDy=0;endArrow=none;endFill=0;fillColor=#dae8fc;strokeColor=#6c8ebf;exitX=0.5;exitY=0;exitDx=0;exitDy=0;" edge="1" parent="1" source="DJmNyeJXOnHaQmtomHHY-10" target="N_hM5SdjFXWvrVBPsyQF-3">
          <mxGeometry relative="1" as="geometry">
            <mxPoint x="70" y="-2" as="sourcePoint" />
            <mxPoint x="-13" y="-24" as="targetPoint" />
          </mxGeometry>
        </mxCell>
        <mxCell id="N_hM5SdjFXWvrVBPsyQF-7" style="rounded=0;orthogonalLoop=1;jettySize=auto;html=1;entryX=0.5;entryY=1;entryDx=0;entryDy=0;endArrow=none;endFill=0;fillColor=#dae8fc;strokeColor=#6c8ebf;exitX=0.75;exitY=0;exitDx=0;exitDy=0;" edge="1" parent="1" source="DJmNyeJXOnHaQmtomHHY-10" target="N_hM5SdjFXWvrVBPsyQF-4">
          <mxGeometry relative="1" as="geometry">
            <mxPoint x="77" y="11" as="sourcePoint" />
            <mxPoint x="-3" y="-14" as="targetPoint" />
          </mxGeometry>
        </mxCell>
        <mxCell id="N_hM5SdjFXWvrVBPsyQF-8" value="address" style="ellipse;whiteSpace=wrap;html=1;align=center;fillColor=#dae8fc;strokeColor=#6c8ebf;" vertex="1" parent="1">
          <mxGeometry x="882.5" y="290" width="80" height="40" as="geometry" />
        </mxCell>
        <mxCell id="N_hM5SdjFXWvrVBPsyQF-9" value="opening hours" style="ellipse;whiteSpace=wrap;html=1;align=center;fillColor=#dae8fc;strokeColor=#6c8ebf;" vertex="1" parent="1">
          <mxGeometry x="884" y="362" width="80" height="40" as="geometry" />
        </mxCell>
        <mxCell id="N_hM5SdjFXWvrVBPsyQF-10" value="" style="endArrow=none;html=1;rounded=0;exitX=0.997;exitY=0.426;exitDx=0;exitDy=0;fillColor=#dae8fc;strokeColor=#6c8ebf;entryX=0;entryY=0.5;entryDx=0;entryDy=0;exitPerimeter=0;" edge="1" parent="1" source="slolwJeSWKeAAmXaZOgp-9" target="N_hM5SdjFXWvrVBPsyQF-8">
          <mxGeometry width="50" height="50" relative="1" as="geometry">
            <mxPoint x="796" y="332" as="sourcePoint" />
            <mxPoint x="799" y="260" as="targetPoint" />
          </mxGeometry>
        </mxCell>
        <mxCell id="N_hM5SdjFXWvrVBPsyQF-11" value="" style="endArrow=none;html=1;rounded=0;exitX=1;exitY=0.5;exitDx=0;exitDy=0;fillColor=#dae8fc;strokeColor=#6c8ebf;entryX=0.012;entryY=0.426;entryDx=0;entryDy=0;entryPerimeter=0;" edge="1" parent="1" source="slolwJeSWKeAAmXaZOgp-9" target="N_hM5SdjFXWvrVBPsyQF-9">
          <mxGeometry width="50" height="50" relative="1" as="geometry">
            <mxPoint x="806" y="342" as="sourcePoint" />
            <mxPoint x="809" y="270" as="targetPoint" />
          </mxGeometry>
        </mxCell>
        <mxCell id="FeYvpHD-uznwkNA1CSEb-2" value="" style="endArrow=none;html=1;rounded=0;exitX=1;exitY=0.5;exitDx=0;exitDy=0;fillColor=#dae8fc;strokeColor=#6c8ebf;entryX=0;entryY=0.75;entryDx=0;entryDy=0;" edge="1" parent="1" source="w4JCF7AyKfzk5Y68rzHO-6" target="DJmNyeJXOnHaQmtomHHY-2">
          <mxGeometry width="50" height="50" relative="1" as="geometry">
            <mxPoint x="720" y="640" as="sourcePoint" />
            <mxPoint x="420" y="1020" as="targetPoint" />
          </mxGeometry>
        </mxCell>
        <mxCell id="FeYvpHD-uznwkNA1CSEb-4" value="Status" style="ellipse;whiteSpace=wrap;html=1;align=center;fillColor=#dae8fc;strokeColor=#6c8ebf;" vertex="1" parent="1">
          <mxGeometry x="-178" y="1084" width="100" height="40" as="geometry" />
        </mxCell>
        <mxCell id="FeYvpHD-uznwkNA1CSEb-5" value="ComplaintID" style="ellipse;whiteSpace=wrap;html=1;align=center;fontStyle=4;fillColor=#dae8fc;strokeColor=#6c8ebf;" vertex="1" parent="1">
          <mxGeometry x="-178" y="1166" width="100" height="40" as="geometry" />
        </mxCell>
        <mxCell id="FeYvpHD-uznwkNA1CSEb-6" value="Details" style="ellipse;whiteSpace=wrap;html=1;align=center;fillColor=#dae8fc;strokeColor=#6c8ebf;" vertex="1" parent="1">
          <mxGeometry x="-58" y="1221" width="100" height="40" as="geometry" />
        </mxCell>
        <mxCell id="FeYvpHD-uznwkNA1CSEb-7" value="date-time" style="ellipse;whiteSpace=wrap;html=1;align=center;fillColor=#dae8fc;strokeColor=#6c8ebf;" vertex="1" parent="1">
          <mxGeometry x="80" y="1210" width="100" height="40" as="geometry" />
        </mxCell>
        <mxCell id="FeYvpHD-uznwkNA1CSEb-8" value="" style="endArrow=none;html=1;rounded=0;exitX=1;exitY=0.5;exitDx=0;exitDy=0;entryX=0;entryY=0;entryDx=0;entryDy=0;fillColor=#dae8fc;strokeColor=#6c8ebf;" edge="1" parent="1" source="FeYvpHD-uznwkNA1CSEb-4" target="w4JCF7AyKfzk5Y68rzHO-6">
          <mxGeometry width="50" height="50" relative="1" as="geometry">
            <mxPoint x="-113" y="1117.7499999999995" as="sourcePoint" />
            <mxPoint x="342" y="976" as="targetPoint" />
          </mxGeometry>
        </mxCell>
        <mxCell id="FeYvpHD-uznwkNA1CSEb-9" value="" style="endArrow=none;html=1;rounded=0;exitX=1;exitY=0;exitDx=0;exitDy=0;entryX=0;entryY=1;entryDx=0;entryDy=0;fillColor=#dae8fc;strokeColor=#6c8ebf;" edge="1" parent="1" source="FeYvpHD-uznwkNA1CSEb-5" target="w4JCF7AyKfzk5Y68rzHO-6">
          <mxGeometry width="50" height="50" relative="1" as="geometry">
            <mxPoint x="-148" y="1244.9999999999995" as="sourcePoint" />
            <mxPoint x="362" y="956" as="targetPoint" />
          </mxGeometry>
        </mxCell>
        <mxCell id="FeYvpHD-uznwkNA1CSEb-10" value="" style="endArrow=none;html=1;rounded=0;exitX=0.5;exitY=0;exitDx=0;exitDy=0;entryX=0.5;entryY=1;entryDx=0;entryDy=0;fillColor=#dae8fc;strokeColor=#6c8ebf;" edge="1" parent="1" source="FeYvpHD-uznwkNA1CSEb-6" target="w4JCF7AyKfzk5Y68rzHO-6">
          <mxGeometry width="50" height="50" relative="1" as="geometry">
            <mxPoint x="312" y="1006" as="sourcePoint" />
            <mxPoint x="362" y="956" as="targetPoint" />
          </mxGeometry>
        </mxCell>
        <mxCell id="FeYvpHD-uznwkNA1CSEb-11" value="" style="endArrow=none;html=1;rounded=0;exitX=0.5;exitY=0;exitDx=0;exitDy=0;entryX=1;entryY=1;entryDx=0;entryDy=0;fillColor=#dae8fc;strokeColor=#6c8ebf;" edge="1" parent="1" source="FeYvpHD-uznwkNA1CSEb-7" target="w4JCF7AyKfzk5Y68rzHO-6">
          <mxGeometry width="50" height="50" relative="1" as="geometry">
            <mxPoint x="312" y="1006" as="sourcePoint" />
            <mxPoint x="362" y="956" as="targetPoint" />
          </mxGeometry>
        </mxCell>
        <mxCell id="r2w7Vk1VP9GIhpJafhLk-1" value="type" style="ellipse;whiteSpace=wrap;html=1;align=center;fillColor=#dae8fc;strokeColor=#6c8ebf;" vertex="1" parent="1">
          <mxGeometry x="950" y="1350" width="95" height="40" as="geometry" />
        </mxCell>
        <mxCell id="r2w7Vk1VP9GIhpJafhLk-4" style="rounded=0;orthogonalLoop=1;jettySize=auto;html=1;entryX=0.5;entryY=0;entryDx=0;entryDy=0;endArrow=none;endFill=0;fillColor=#dae8fc;strokeColor=#6c8ebf;exitX=0.5;exitY=1;exitDx=0;exitDy=0;" edge="1" parent="1" source="Lrfri0rjpBoafnMVy41J-9" target="r2w7Vk1VP9GIhpJafhLk-1">
          <mxGeometry relative="1" as="geometry">
            <mxPoint x="945" y="1310" as="sourcePoint" />
            <mxPoint x="908" y="1360" as="targetPoint" />
          </mxGeometry>
        </mxCell>
        <mxCell id="dHTqZxIeyHrGhxq35usn-14" value="recommended by app" style="rhombus;whiteSpace=wrap;html=1;fillColor=#dae8fc;strokeColor=#6c8ebf;" vertex="1" parent="1">
          <mxGeometry x="240" y="843.5" width="140" height="55" as="geometry" />
        </mxCell>
        <mxCell id="dHTqZxIeyHrGhxq35usn-15" value="" style="endArrow=none;html=1;rounded=0;fillColor=#dae8fc;strokeColor=#6c8ebf;exitX=0.5;exitY=1;exitDx=0;exitDy=0;entryX=0.5;entryY=0;entryDx=0;entryDy=0;" edge="1" parent="1" source="lZeAHrLUnZliuIAY2SoR-7" target="dHTqZxIeyHrGhxq35usn-16">
          <mxGeometry width="50" height="50" relative="1" as="geometry">
            <mxPoint x="970" y="547.5" as="sourcePoint" />
            <mxPoint x="700" y="640" as="targetPoint" />
          </mxGeometry>
        </mxCell>
        <mxCell id="dHTqZxIeyHrGhxq35usn-16" value="date-time" style="ellipse;whiteSpace=wrap;html=1;align=center;fillColor=#dae8fc;strokeColor=#6c8ebf;" vertex="1" parent="1">
          <mxGeometry x="644" y="652.5" width="100" height="40" as="geometry" />
        </mxCell>
        <mxCell id="dHTqZxIeyHrGhxq35usn-18" style="rounded=0;orthogonalLoop=1;jettySize=auto;html=1;entryX=0.5;entryY=1;entryDx=0;entryDy=0;endArrow=none;endFill=0;fillColor=#dae8fc;strokeColor=#6c8ebf;exitX=0;exitY=0;exitDx=0;exitDy=0;" edge="1" parent="1" source="DJmNyeJXOnHaQmtomHHY-2" target="dHTqZxIeyHrGhxq35usn-14">
          <mxGeometry relative="1" as="geometry">
            <Array as="points" />
            <mxPoint x="875" y="1080" as="sourcePoint" />
            <mxPoint x="264" y="1076" as="targetPoint" />
          </mxGeometry>
        </mxCell>
        <mxCell id="dHTqZxIeyHrGhxq35usn-19" style="rounded=0;orthogonalLoop=1;jettySize=auto;html=1;entryX=0.75;entryY=1;entryDx=0;entryDy=0;fillColor=#dae8fc;strokeColor=#6c8ebf;endArrow=none;endFill=0;exitX=0.5;exitY=0;exitDx=0;exitDy=0;" edge="1" parent="1" source="dHTqZxIeyHrGhxq35usn-14" target="DJmNyeJXOnHaQmtomHHY-10">
          <mxGeometry relative="1" as="geometry">
            <mxPoint x="209" y="1048" as="sourcePoint" />
            <mxPoint x="129" y="61" as="targetPoint" />
          </mxGeometry>
        </mxCell>
        <mxCell id="dHTqZxIeyHrGhxq35usn-20" value="date-time" style="ellipse;whiteSpace=wrap;html=1;align=center;fillColor=#dae8fc;strokeColor=#6c8ebf;" vertex="1" parent="1">
          <mxGeometry x="425" y="815.5" width="100" height="40" as="geometry" />
        </mxCell>
        <mxCell id="dHTqZxIeyHrGhxq35usn-21" style="rounded=0;orthogonalLoop=1;jettySize=auto;html=1;exitX=1;exitY=0.5;exitDx=0;exitDy=0;endArrow=none;endFill=0;fillColor=#dae8fc;strokeColor=#6c8ebf;entryX=0;entryY=1;entryDx=0;entryDy=0;" edge="1" parent="1" source="dHTqZxIeyHrGhxq35usn-14" target="dHTqZxIeyHrGhxq35usn-20">
          <mxGeometry relative="1" as="geometry">
            <mxPoint x="875" y="1065" as="targetPoint" />
            <mxPoint x="677" y="826" as="sourcePoint" />
          </mxGeometry>
        </mxCell>
        <mxCell id="NvTYYxDG4jKruTsTUj_--1" style="rounded=0;orthogonalLoop=1;jettySize=auto;html=1;entryX=0;entryY=0.5;entryDx=0;entryDy=0;endArrow=none;endFill=0;fillColor=#dae8fc;strokeColor=#6c8ebf;" edge="1" parent="1" source="NvTYYxDG4jKruTsTUj_--2" target="DJmNyeJXOnHaQmtomHHY-19">
          <mxGeometry relative="1" as="geometry">
            <mxPoint x="-200" y="352.5" as="targetPoint" />
          </mxGeometry>
        </mxCell>
        <mxCell id="NvTYYxDG4jKruTsTUj_--2" value="&lt;u&gt;name&lt;/u&gt;" style="ellipse;whiteSpace=wrap;html=1;align=center;fillColor=#dae8fc;strokeColor=#6c8ebf;" vertex="1" parent="1">
          <mxGeometry x="-270" y="280" width="100" height="40" as="geometry" />
        </mxCell>
      </root>
    </mxGraphModel>
  </diagram>
</mxfile>
